<svg width="125.88" height="22.56" viewBox="0 0 125.88 22.56" xmlns="http://www.w3.org/2000/svg"><g id="svgGroup" stroke-linecap="round" fill-rule="evenodd" font-size="9pt" stroke="#000" stroke-width="0.25mm" fill="#000" style="stroke:#000;stroke-width:0.25mm;fill:#000"><path d="M 21.24 22.2 L 18.54 22.2 L 18.54 6.6 L 21.15 6.6 L 21.15 9.21 Q 21.99 7.95 23.28 7.095 Q 24.57 6.24 26.22 6.24 A 6.298 6.298 0 0 1 27.545 6.372 Q 28.441 6.565 29.126 7.039 A 3.938 3.938 0 0 1 29.265 7.14 Q 30.45 8.04 30.93 9.54 Q 31.86 8.16 33.135 7.2 A 4.701 4.701 0 0 1 35.172 6.335 A 6.434 6.434 0 0 1 36.3 6.24 A 6.431 6.431 0 0 1 37.766 6.397 Q 39.239 6.742 40.095 7.845 Q 41.34 9.45 41.34 12.03 L 41.34 22.2 L 38.64 22.2 L 38.64 12.24 Q 38.64 10.876 38.109 9.948 A 3.295 3.295 0 0 0 37.89 9.615 A 2.392 2.392 0 0 0 36.146 8.626 A 3.203 3.203 0 0 0 35.82 8.61 Q 34.47 8.61 33.315 9.615 Q 32.16 10.62 31.29 11.97 L 31.29 22.2 L 28.59 22.2 L 28.59 12.24 Q 28.59 10.876 28.059 9.948 A 3.295 3.295 0 0 0 27.84 9.615 A 2.392 2.392 0 0 0 26.096 8.626 A 3.203 3.203 0 0 0 25.77 8.61 A 3.606 3.606 0 0 0 23.874 9.158 A 4.873 4.873 0 0 0 23.28 9.585 Q 22.11 10.56 21.24 11.88 L 21.24 22.2 Z M 0 20.43 L 1.44 18.03 Q 2.52 18.93 3.87 19.5 A 7.005 7.005 0 0 0 5.481 19.953 A 9.635 9.635 0 0 0 7.02 20.07 A 8.394 8.394 0 0 0 8.384 19.966 Q 9.608 19.764 10.44 19.17 A 3.084 3.084 0 0 0 11.279 18.298 Q 11.674 17.667 11.698 16.85 A 3.634 3.634 0 0 0 11.7 16.74 A 3.582 3.582 0 0 0 11.599 15.872 A 2.945 2.945 0 0 0 11.34 15.195 Q 10.982 14.523 9.955 13.881 A 7.652 7.652 0 0 0 9.945 13.875 A 9.631 9.631 0 0 0 9.203 13.462 Q 8.411 13.061 7.28 12.624 A 35.577 35.577 0 0 0 6.9 12.48 A 27.124 27.124 0 0 1 5.518 11.901 Q 4.84 11.593 4.278 11.283 A 11.849 11.849 0 0 1 3.45 10.785 A 6.579 6.579 0 0 1 2.523 10.051 Q 2.008 9.556 1.691 8.996 A 3.991 3.991 0 0 1 1.605 8.835 A 5 5 0 0 1 1.149 7.434 A 6.878 6.878 0 0 1 1.05 6.24 Q 1.05 4.74 1.875 3.525 A 5.153 5.153 0 0 1 3.211 2.194 A 7.016 7.016 0 0 1 4.305 1.575 A 7.667 7.667 0 0 1 6.075 1.024 Q 6.865 0.875 7.768 0.846 A 13.568 13.568 0 0 1 8.19 0.84 A 15.869 15.869 0 0 1 9.956 0.934 A 11.831 11.831 0 0 1 11.535 1.215 Q 13.02 1.59 14.43 2.28 L 13.38 4.71 A 9.449 9.449 0 0 0 12.142 4.104 A 12.506 12.506 0 0 0 10.995 3.705 A 10.02 10.02 0 0 0 8.13 3.3 A 8.156 8.156 0 0 0 6.921 3.384 Q 5.776 3.556 5.01 4.08 A 2.97 2.97 0 0 0 4.361 4.669 A 2.208 2.208 0 0 0 3.87 6.09 Q 3.87 6.87 4.2 7.47 A 2.073 2.073 0 0 0 4.52 7.897 Q 4.858 8.251 5.427 8.594 A 7.05 7.05 0 0 0 5.505 8.64 A 9.901 9.901 0 0 0 6.17 8.992 Q 6.851 9.322 7.814 9.697 A 39.004 39.004 0 0 0 8.43 9.93 Q 10.77 10.8 12.135 11.76 Q 13.5 12.72 14.07 13.845 A 5.274 5.274 0 0 1 14.592 15.604 A 6.647 6.647 0 0 1 14.64 16.41 A 6.513 6.513 0 0 1 14.44 18.06 A 5.131 5.131 0 0 1 13.665 19.74 A 5.885 5.885 0 0 1 11.586 21.547 A 7.307 7.307 0 0 1 10.965 21.84 A 9.156 9.156 0 0 1 8.742 22.441 A 12.008 12.008 0 0 1 7.02 22.56 A 14.21 14.21 0 0 1 4.687 22.376 A 11.415 11.415 0 0 1 3.03 21.975 A 11.462 11.462 0 0 1 1.42 21.32 A 8.53 8.53 0 0 1 0 20.43 Z M 114.33 20.91 L 114.33 22.2 L 111.81 22.2 L 111.81 0 L 114.51 0 L 114.51 8.22 A 4.653 4.653 0 0 1 115.076 7.677 Q 115.381 7.428 115.762 7.184 A 9.994 9.994 0 0 1 116.265 6.885 A 4.975 4.975 0 0 1 117.834 6.338 A 6.727 6.727 0 0 1 119.01 6.24 Q 120.81 6.24 122.385 7.185 A 6.699 6.699 0 0 1 124.538 9.275 A 8.239 8.239 0 0 1 124.92 9.915 A 7.705 7.705 0 0 1 125.669 12.027 Q 125.86 12.958 125.878 14.027 A 13.282 13.282 0 0 1 125.88 14.25 A 9.995 9.995 0 0 1 125.674 16.316 A 8.325 8.325 0 0 1 125.28 17.64 A 8.81 8.81 0 0 1 124.332 19.441 A 7.645 7.645 0 0 1 123.675 20.265 A 7.468 7.468 0 0 1 121.836 21.739 A 6.991 6.991 0 0 1 121.41 21.96 A 6.002 6.002 0 0 1 119.2 22.548 A 5.763 5.763 0 0 1 118.83 22.56 Q 117.48 22.56 116.295 22.065 A 9.082 9.082 0 0 1 115.304 21.583 Q 114.757 21.271 114.33 20.91 Z M 77.67 16.83 L 77.67 9.51 L 74.97 9.51 L 74.97 7.17 L 77.73 7.17 L 78.3 2.25 L 80.37 2.25 L 80.37 7.17 L 84.69 7.17 L 84.69 9.51 L 80.37 9.51 L 80.37 17.04 A 6.468 6.468 0 0 0 80.42 17.879 Q 80.562 18.961 81.105 19.47 Q 81.84 20.16 82.86 20.16 Q 83.61 20.16 84.285 19.92 A 7.72 7.72 0 0 0 85.238 19.509 A 6.83 6.83 0 0 0 85.53 19.35 L 86.28 21.51 A 5.564 5.564 0 0 1 85.795 21.767 Q 85.313 21.994 84.66 22.215 Q 83.64 22.56 82.53 22.56 A 5.498 5.498 0 0 1 80.975 22.351 A 4.18 4.18 0 0 1 78.975 21.075 A 4.835 4.835 0 0 1 78.007 19.304 Q 77.778 18.575 77.705 17.694 A 10.433 10.433 0 0 1 77.67 16.83 Z M 101.76 22.2 L 89.28 22.2 L 89.28 1.2 L 92.13 1.2 L 92.13 19.65 L 101.76 19.65 L 101.76 22.2 Z M 56.67 7.86 L 56.67 6.6 L 59.13 6.6 L 59.13 18.42 A 3.645 3.645 0 0 0 59.16 18.911 Q 59.237 19.475 59.509 19.761 A 0.89 0.89 0 0 0 59.685 19.905 Q 60.24 20.25 60.9 20.25 L 60.33 22.35 Q 57.521 22.35 56.881 20.124 A 4.076 4.076 0 0 1 56.85 20.01 A 6.392 6.392 0 0 1 55.917 21.038 A 8.549 8.549 0 0 1 54.975 21.765 A 4.478 4.478 0 0 1 53.489 22.396 Q 52.884 22.538 52.178 22.557 A 8.162 8.162 0 0 1 51.96 22.56 Q 50.01 22.56 48.42 21.57 A 6.884 6.884 0 0 1 46.196 19.312 A 8.377 8.377 0 0 1 45.885 18.765 A 8.168 8.168 0 0 1 45.096 16.382 A 10.993 10.993 0 0 1 44.94 14.49 A 9.943 9.943 0 0 1 45.239 12.009 A 8.39 8.39 0 0 1 45.885 10.29 Q 46.83 8.43 48.495 7.335 A 6.689 6.689 0 0 1 51.853 6.253 A 8.216 8.216 0 0 1 52.32 6.24 A 6.775 6.775 0 0 1 53.758 6.387 A 5.611 5.611 0 0 1 54.765 6.705 A 7.801 7.801 0 0 1 56.051 7.393 A 6.631 6.631 0 0 1 56.67 7.86 Z M 67.2 22.2 L 64.5 22.2 L 64.5 6.6 L 67.11 6.6 L 67.11 9.99 Q 67.5 9 68.16 8.145 Q 68.82 7.29 69.81 6.765 A 4.445 4.445 0 0 1 71.214 6.308 A 5.838 5.838 0 0 1 72.12 6.24 Q 72.57 6.24 73.02 6.285 A 5.692 5.692 0 0 1 73.336 6.325 Q 73.582 6.364 73.77 6.42 L 72.96 9.21 Q 72.416 8.981 71.68 8.97 A 4.979 4.979 0 0 0 71.61 8.97 A 3.887 3.887 0 0 0 69.621 9.524 A 4.682 4.682 0 0 0 69.495 9.6 Q 68.497 10.226 67.854 11.533 A 6.878 6.878 0 0 0 67.845 11.55 Q 67.316 12.632 67.221 14.198 A 11.727 11.727 0 0 0 67.2 14.91 L 67.2 22.2 Z M 107.01 22.2 L 104.31 22.2 L 104.31 6.6 L 107.01 6.6 L 107.01 22.2 Z M 56.43 18.21 L 56.43 9.84 Q 55.62 9.27 54.645 8.925 Q 53.67 8.58 52.59 8.58 A 4.777 4.777 0 0 0 51.099 8.806 A 4.207 4.207 0 0 0 50.055 9.315 Q 48.96 10.05 48.33 11.355 Q 47.7 12.66 47.7 14.4 Q 47.7 16.08 48.33 17.385 A 5.281 5.281 0 0 0 49.262 18.749 A 4.709 4.709 0 0 0 50.07 19.425 Q 51.18 20.16 52.56 20.16 Q 53.7 20.16 54.72 19.605 Q 55.74 19.05 56.43 18.21 Z M 114.51 10.62 L 114.51 18.96 A 5.397 5.397 0 0 0 115.599 19.616 A 6.541 6.541 0 0 0 116.13 19.83 A 5.839 5.839 0 0 0 117.979 20.159 A 6.611 6.611 0 0 0 118.11 20.16 A 5.097 5.097 0 0 0 119.615 19.945 A 4.424 4.424 0 0 0 120.705 19.44 A 4.785 4.785 0 0 0 122.25 17.817 A 5.894 5.894 0 0 0 122.475 17.4 A 6.26 6.26 0 0 0 123.029 15.586 A 8.243 8.243 0 0 0 123.12 14.34 Q 123.12 12.604 122.52 11.343 A 5.202 5.202 0 0 0 122.475 11.25 Q 121.83 9.96 120.765 9.27 Q 119.7 8.58 118.41 8.58 A 4.422 4.422 0 0 0 116.722 8.899 A 4.216 4.216 0 0 0 116.085 9.225 Q 115.05 9.87 114.51 10.62 Z M 104.351 3.386 A 1.792 1.792 0 0 0 105.66 3.93 A 2.453 2.453 0 0 0 106.109 3.891 A 1.694 1.694 0 0 0 107.04 3.405 A 1.733 1.733 0 0 0 107.467 2.665 A 2.253 2.253 0 0 0 107.55 2.04 A 2.176 2.176 0 0 0 107.55 2.016 A 1.818 1.818 0 0 0 106.995 0.705 Q 106.44 0.15 105.66 0.15 Q 104.79 0.15 104.28 0.66 Q 103.77 1.17 103.77 2.04 A 1.797 1.797 0 0 0 103.918 2.766 A 1.993 1.993 0 0 0 104.325 3.36 A 2.242 2.242 0 0 0 104.351 3.386 Z" vector-effect="non-scaling-stroke"/></g></svg>